<svg width="36" height="24" viewBox="0 0 36 24" fill="none" xmlns="http://www.w3.org/2000/svg">
<path d="M10.4715 0.707764C11.5087 0.707764 12.4673 0.786514 13.347 1.02276C14.2245 1.18026 14.9467 1.50876 15.588 1.90251C16.2315 2.29851 16.7062 2.86101 17.0302 3.58326C17.3452 4.30326 17.5162 5.18301 17.5162 6.14151C17.5162 7.25751 17.2777 8.21601 16.7152 8.93601C16.2315 9.65601 15.4418 10.2995 14.472 10.7743C15.8355 11.1703 16.8728 11.8903 17.505 12.8488C18.1373 13.8073 18.5423 15.002 18.5423 16.3655C18.5423 17.4815 18.306 18.44 17.901 19.241C17.497 20.0472 16.8907 20.7349 16.1415 21.2368C15.4215 21.7205 14.5418 22.1143 13.5833 22.3528C12.6443 22.6007 11.6787 22.7337 10.7077 22.7488L0 22.7645V0.707764H10.4715ZM9.83025 9.65826C10.7077 9.65826 11.4278 9.42201 11.9835 9.01701C12.537 8.61201 12.7823 7.89876 12.7823 7.02126C12.7823 6.53526 12.7035 6.06276 12.546 5.74551C12.3755 5.42398 12.1282 5.14958 11.826 4.94676C11.4996 4.76879 11.1507 4.63559 10.7888 4.55076C10.3928 4.47201 9.98775 4.47201 9.513 4.47201H4.8825V9.66951C4.8825 9.65826 9.83025 9.65826 9.83025 9.65826ZM10.0665 19.0925C10.5502 19.0925 11.025 19.0138 11.43 18.935C11.826 18.8563 12.231 18.6965 12.546 18.449C12.861 18.2015 13.1085 17.9653 13.347 17.5715C13.5045 17.1755 13.662 16.6918 13.662 16.1293C13.662 15.0133 13.347 14.2123 12.7035 13.6498C12.0622 13.166 11.1825 12.9298 10.1452 12.9298H4.8825V19.0813H10.0687L10.0665 19.0925ZM25.497 19.0138C26.1405 19.655 27.0967 19.9723 28.3725 19.9723C29.25 19.9723 30.051 19.7338 30.6945 19.3288C31.3358 18.845 31.7295 18.3703 31.887 17.8888H35.802C35.1585 19.8035 34.2 21.167 32.9265 22.0468C31.653 22.8455 30.1298 23.3203 28.2915 23.3203C27.116 23.3255 25.9502 23.1079 24.8557 22.679C23.8707 22.3128 22.9918 21.7083 22.2975 20.9195C21.5569 20.1839 21.007 19.2788 20.6955 18.2825C20.3017 17.2453 20.133 16.1293 20.133 14.8445C20.133 13.6498 20.2905 12.5225 20.6955 11.4853C21.1005 10.4503 21.654 9.56826 22.3762 8.76951C23.0962 8.04951 23.976 7.40601 24.9345 7.01001C26.0033 6.58449 27.1434 6.36684 28.2937 6.36876C29.6572 6.36876 30.852 6.60501 31.8893 7.16751C32.9243 7.73001 33.7275 8.36451 34.3687 9.32301C35.01 10.2005 35.4848 11.2378 35.811 12.356C35.9685 13.472 36.0473 14.597 35.9685 15.8728H24.381C24.381 17.1778 24.8535 18.3703 25.497 19.0138ZM30.537 10.6168C29.9745 10.0543 29.0925 9.73701 28.0552 9.73701C27.3352 9.73701 26.7817 9.89451 26.298 10.133C25.8142 10.3693 25.497 10.6955 25.182 11.0105C24.8879 11.3193 24.6921 11.7085 24.6195 12.1288C24.5385 12.5225 24.462 12.8488 24.462 13.1638H31.653C31.4955 11.9803 31.0927 11.1793 30.537 10.6168ZM23.5012 2.22876H32.4518V4.38201H23.5012V2.22876Z" fill="black"/>
</svg>
