<svg width="36" height="36" viewBox="0 0 36 36" fill="none" xmlns="http://www.w3.org/2000/svg">
<path d="M18 0.707764C8.055 0.707764 0 8.76276 0 18.7078C0 26.6728 5.1525 33.4003 12.3075 35.7853C13.2075 35.9428 13.545 35.4028 13.545 34.9303C13.545 34.5028 13.5225 33.0853 13.5225 31.5778C9 32.4103 7.83 30.4753 7.47 29.4628C7.2675 28.9453 6.39 27.3478 5.625 26.9203C4.995 26.5828 4.095 25.7503 5.6025 25.7278C7.02 25.7053 8.0325 27.0328 8.37 27.5728C9.99 30.2953 12.5775 29.5303 13.6125 29.0578C13.77 27.8878 14.2425 27.1003 14.76 26.6503C10.755 26.2003 6.57 24.6478 6.57 17.7628C6.57 15.8053 7.2675 14.1853 8.415 12.9253C8.235 12.4753 7.605 10.6303 8.595 8.15526C8.595 8.15526 10.1025 7.68276 13.545 10.0003C14.985 9.59526 16.515 9.39276 18.045 9.39276C19.575 9.39276 21.105 9.59526 22.545 10.0003C25.9875 7.66026 27.495 8.15526 27.495 8.15526C28.485 10.6303 27.855 12.4753 27.675 12.9253C28.8225 14.1853 29.52 15.7828 29.52 17.7628C29.52 24.6703 25.3125 26.2003 21.3075 26.6503C21.96 27.2128 22.5225 28.2928 22.5225 29.9803C22.5225 32.3878 22.5 34.3228 22.5 34.9303C22.5 35.4028 22.8375 35.9653 23.7375 35.7853C27.311 34.5792 30.4163 32.2828 32.6161 29.2192C34.8158 26.1557 35.9994 22.4793 36 18.7078C36 8.76276 27.945 0.707764 18 0.707764Z" fill="black"/>
</svg>
