<svg width="33" height="33" viewBox="0 0 33 33" fill="none" xmlns="http://www.w3.org/2000/svg">
<path d="M0 16.0056C0 6.80855 7.20431 0 16.5 0C25.7957 0 33 6.80855 33 16.0056C33 25.2026 25.7957 32.0111 16.5 32.0111C14.8294 32.0111 13.2289 31.7904 11.7233 31.3779C11.4313 31.2967 11.1203 31.3185 10.8426 31.4398L7.56731 32.8877C7.3695 32.975 7.15329 33.0123 6.93767 32.9964C6.72205 32.9806 6.51363 32.912 6.33073 32.7967C6.14783 32.6814 5.99604 32.523 5.88871 32.3353C5.78138 32.1476 5.7218 31.9364 5.71519 31.7203L5.62444 28.7853C5.61817 28.6066 5.57562 28.4311 5.49939 28.2694C5.42316 28.1077 5.31483 27.9632 5.181 27.8447C1.97175 24.9736 0 20.8155 0 16.0056ZM11.4386 12.9963L6.59175 20.6855C6.12769 21.4239 7.03312 22.2552 7.72819 21.7292L12.936 17.7773C13.1073 17.6472 13.3163 17.5764 13.5314 17.5757C13.7465 17.5749 13.9559 17.6443 14.1281 17.7732L17.9829 20.6649C18.2564 20.87 18.5695 21.0162 18.9023 21.0944C19.2351 21.1725 19.5805 21.1808 19.9167 21.1188C20.2529 21.0568 20.5726 20.9258 20.8557 20.7341C21.1388 20.5424 21.379 20.2941 21.5614 20.0049L26.4082 12.3156C26.8744 11.5772 25.9669 10.746 25.2718 11.272L20.064 15.2238C19.8927 15.3539 19.6837 15.4247 19.4686 15.4255C19.2535 15.4262 19.0441 15.3569 18.8719 15.228L15.0171 12.3342C14.7436 12.1291 14.4305 11.9828 14.0977 11.9047C13.7649 11.8266 13.4195 11.8183 13.0833 11.8803C12.7471 11.9423 12.4274 12.0733 12.1443 12.265C11.8612 12.4567 11.621 12.7071 11.4386 12.9963Z" fill="black"/>
</svg>
